<?xml version="1.0" standalone="no"?>
<!DOCTYPE svg PUBLIC "-//W3C//DTD SVG 20010904//EN"
 "http://www.w3.org/TR/2001/REC-SVG-20010904/DTD/svg10.dtd">
<svg version="1.0" xmlns="http://www.w3.org/2000/svg"
 width="512.000000pt" height="512.000000pt" viewBox="0 0 512.000000 512.000000"
 preserveAspectRatio="xMidYMid meet">
<metadata>
Created by potrace 1.11, written by Peter Selinger 2001-2013
</metadata>
<g transform="translate(0.000000,512.000000) scale(0.100000,-0.100000)"
fill="#000000" stroke="none">
<path d="M326 5089 c-61 -14 -151 -67 -194 -113 -37 -40 -85 -121 -100 -170
-11 -36 -13 -4426 -2 -4474 28 -118 112 -220 227 -275 l68 -32 2235 0 2235 0
69 34 c83 41 129 80 172 147 69 107 64 -62 64 2368 l0 2196 -22 57 c-29 80
-70 136 -136 188 -112 88 136 79 -2362 81 -1309 1 -2231 -2 -2254 -7z"/>
</g>
</svg>
